<svg xmlns="http://www.w3.org/2000/svg" xmlns:xlink="http://www.w3.org/1999/xlink" viewBox="0,0,256,256" width="48px" height="48px" fill-rule="nonzero"><g fill="none" fill-rule="nonzero" stroke="none" stroke-width="1" stroke-linecap="butt" stroke-linejoin="miter" stroke-miterlimit="10" stroke-dasharray="" stroke-dashoffset="0" font-family="none" font-weight="none" font-size="none" text-anchor="none" style="mix-blend-mode: normal"><g transform="scale(5.33333,5.33333)"><path d="M6,18v19c0,2.762 2.239,5 5,5h26c2.762,0 5,-2.238 5,-5v-19z" fill="#30aed1"></path><path d="M42,18v-7c0,-2.762 -2.238,-5 -5,-5h-26c-2.761,0 -5,2.238 -5,5v7z" fill="#795548"></path><path d="M24,17c-4.41828,0 -8,3.58172 -8,8c0,4.41828 3.58172,8 8,8c4.41828,0 8,-3.58172 8,-8c0,-4.41828 -3.58172,-8 -8,-8z" fill="#37474f"></path><path d="M24,34c-4.962,0 -9,-4.037 -9,-9c0,-4.962 4.038,-9 9,-9c4.963,0 9,4.038 9,9c0,4.963 -4.037,9 -9,9zM24,18c-3.86,0 -7,3.14 -7,7c0,3.859 3.14,7 7,7c3.859,0 7,-3.141 7,-7c0,-3.86 -3.141,-7 -7,-7z" fill="#fff3e0"></path><path d="M24,20c-2.76142,0 -5,2.23858 -5,5c0,2.76142 2.23858,5 5,5c2.76142,0 5,-2.23858 5,-5c0,-2.76142 -2.23858,-5 -5,-5z" fill="#546e7a"></path><path d="M22,21c-1.10457,0 -2,0.89543 -2,2c0,1.10457 0.89543,2 2,2c1.10457,0 2,-0.89543 2,-2c0,-1.10457 -0.89543,-2 -2,-2z" fill="#bbdefb"></path><path d="M8,7.022v10.978h2v-11.899c-0.744,0.151 -1.416,0.48 -2,0.921z" fill="#f44336"></path><path d="M11,6c-0.343,0 -0.677,0.035 -1,0.101v11.899h2v-12z" fill="#ffeb3b"></path><path d="M12,6h2v12h-2z" fill="#8bc34a"></path><path d="M14,6h2v12h-2z" fill="#2196f3"></path><path d="M32,9h6v6h-6zM16,17.5c0,0.828 -0.671,1.5 -1.5,1.5h-5c-0.829,0 -1.5,-0.672 -1.5,-1.5v0c0,-0.828 0.671,-1.5 1.5,-1.5h5c0.829,0 1.5,0.672 1.5,1.5z" fill="#3e2723"></path></g></g></svg>